{"title":"[18+] Basic Instinct 2 (2006) BRRip Dual Audio [Hindi-English] G","uid":9701217,"size":314117506,"categoryP":"video","categoryS":"movies","magnet":"?xt=urn:btih:2fe09b4ba6087fe6ae4b7c08ccc6d46c04bfff8d&amp;dn=%5B18%2B%5D+Basic+Instinct+2+%282006%29+BRRip+Dual+Audio+%5BHindi-English%5D+G&amp;tr=udp%3A%2F%2Ftracker.openbittorrent.com%3A80&amp;tr=udp%3A%2F%2Fopen.demonii.com%3A1337&amp;tr=udp%3A%2F%2Ftracker.coppersurfer.tk%3A6969&amp;tr=udp%3A%2F%2Fexodus.desync.com%3A6969","seeders":1,"leechers":1,"uploader":"jatt13","files":1,"time":1393999819,"description":"\n[18+] Basic Instinct 2 (2006) BRRip Dual Audio [Hindi-English] \n[img]http://imageshack.us/a/img577/6841/j1g9.jpg[/img]\n[url]http://www.imdb.com/title/tt0430912/[/url]\n[img]http://ia.media-imdb.com/images/M/MV5BMTkzNzM3ODY3Nl5BMl5BanBnXkFtZTcwNzMyNDcyNA@@._V1_SX214_.jpg[/img]\n[img]http://imageshack.com/a/img33/2131/0zvp.jpg[/img]\n[img]http://imageshack.com/a/img812/218/18ke.jpg[/img]\n[img]http://imageshack.com/a/img560/5166/uvnv.jpg[/img]\nVideo\nID                             : 1\nFormat                         : AVC\nFormat/Info                    : Advanced Video Codec\nFormat profile                 : &lt;a class=&quot;__cf_email__&quot; href=&quot;/cdn-cgi/l/email-protection&quot; data-cfemail=&quot;9fd7f6f8f7dfd3acb1af&quot;&gt;[email&amp;#160;protected]&lt;/a&gt;&lt;script cf-hash='f9e31' type=&quot;text/javascript&quot;&gt;\n/* &lt;![CDATA[ */!function(){try{var t=&quot;currentScript&quot;in document?document.currentScript:function(){for(var t=document.getElementsByTagName(&quot;script&quot;),e=t.length;e--;)if(t[e].getAttribute(&quot;cf-hash&quot;))return t[e]}();if(t&amp;&amp;t.previousSibling){var e,r,n,i,c=t.previousSibling,a=c.getAttribute(&quot;data-cfemail&quot;);if(a){for(e=&quot;&quot;,r=parseInt(a.substr(0,2),16),n=2;a.length-n;n+=2)i=parseInt(a.substr(n,2),16)^r,e+=String.fromCharCode(i);e=document.createTextNode(e),c.parentNode.replaceChild(e,c)}}}catch(u){}}();/* ]]&gt; */&lt;/script&gt;\nFormat settings, CABAC         : Yes\nFormat settings, ReFrames      : 8 frames\nCodec ID                       : V_MPEG4/ISO/AVC\nDuration                       : 1h 48mn\nBit rate                       : 319 Kbps\nWidth                          : 720 pixels\nHeight                         : 304 pixels\nDisplay aspect ratio           : 2.35:1\nFrame rate mode                : Constant\nFrame rate                     : 28.500 fps\nOriginal frame rate            : 24.000 fps\nColor space                    : YUV\nChroma subsampling             : 4:2:0\nBit depth                      : 8 bits\nScan type                      : Progressive\nBits/(Pixel*Frame)             : 0.051\nStream size                    : 248 MiB (83%)\nTitle                          : GOPI SAHI\nWriting library                : x264 core 120 r2164 da19765\nEncoding settings              : cabac=1 / ref=8 / deblock=1:0:0 / analyse=0x3:0x133 /\nDefault                        : No\nForced                         : No\n\nAudio #1\nID                             : 2\nFormat                         : Vorbis\nCodec ID                       : A_VORBIS\nDuration                       : 1h 48mn\nBit rate mode                  : Variable\nBit rate                       : 29.2 Kbps\nChannel count                  : 2 channels\nSampling rate                  : 11.025 KHz\nCompression mode               : Lossy\nStream size                    : 22.7 MiB (8%)\nTitle                          : GOPI SAHI\nWriting library                : aoTuV 20110424 (UTC 2011-04-24)\nLanguage                       : Hindi\nDefault                        : No\nForced                         : No\n\nAudio #2\nID                             : 3\nFormat                         : Vorbis\nCodec ID                       : A_VORBIS\nDuration                       : 1h 48mn\nBit rate mode                  : Variable\nBit rate                       : 29.2 Kbps\nChannel count                  : 2 channels\nSampling rate                  : 11.025 KHz\nCompression mode               : Lossy\nStream size                    : 22.7 MiB (8%)\nTitle                          : GOPI SAHI\nWriting library                : aoTuV 20110424 (UTC 2011-04-24)\nLanguage                       : English\nDefault                        : No\nForced                         : No","torrent":{"xt":"urn:btih:2fe09b4ba6087fe6ae4b7c08ccc6d46c04bfff8d","amp;dn":"%5B18%2B%5D+Basic+Instinct+2+%282006%29+BRRip+Dual+Audio+%5BHindi-English%5D+G","amp;tr":["udp%3A%2F%2Ftracker.openbittorrent.com%3A80","udp%3A%2F%2Fopen.demonii.com%3A1337","udp%3A%2F%2Ftracker.coppersurfer.tk%3A6969","udp%3A%2F%2Fexodus.desync.com%3A6969"],"infoHash":"2fe09b4ba6087fe6ae4b7c08ccc6d46c04bfff8d","infoHashBuffer":{"type":"Buffer","data":[47,224,155,75,166,8,127,230,174,75,124,8,204,198,212,108,4,191,255,141]},"announce":[],"urlList":[]}}